<svg xmlns="http://www.w3.org/2000/svg" xmlns:xlink="http://www.w3.org/1999/xlink" width="500" zoomAndPan="magnify" viewBox="0 0 375 374.999991" height="500" preserveAspectRatio="xMidYMid meet" version="1.0"><defs><g/><clipPath id="4b671c3c48"><path d="M 4 73.125 L 371 73.125 L 371 190 L 4 190 Z M 4 73.125 " clip-rule="nonzero"/></clipPath><clipPath id="349a16df21"><rect x="0" width="228" y="0" height="70"/></clipPath><clipPath id="e8549abfe4"><rect x="0" width="375" y="0" height="375"/></clipPath></defs><g transform="matrix(1, 0, 0, 1, 0, 0)"><g clip-path="url(#e8549abfe4)"><g clip-path="url(#4b671c3c48)"><path fill="#ffffff" d="M 187.480469 79.742188 C 82.023438 79.742188 11.183594 106.433594 11.183594 131.367188 C 11.183594 156.300781 82.023438 182.996094 187.480469 182.996094 C 292.945312 182.996094 363.785156 156.304688 363.785156 131.367188 C 363.785156 106.433594 292.945312 79.742188 187.480469 79.742188 Z M 187.480469 189.550781 C 139.199219 189.550781 93.761719 183.789062 59.539062 173.324219 C 24.132812 162.5 4.625 147.597656 4.625 131.367188 C 4.628906 115.140625 24.132812 100.238281 59.539062 89.414062 C 93.761719 78.949219 139.199219 73.1875 187.480469 73.1875 C 235.761719 73.1875 281.199219 78.949219 315.417969 89.414062 C 350.835938 100.238281 370.339844 115.140625 370.339844 131.367188 C 370.339844 147.59375 350.835938 162.5 315.417969 173.324219 C 281.199219 183.789062 235.769531 189.550781 187.480469 189.550781 Z M 187.480469 189.550781 " fill-opacity="1" fill-rule="evenodd"/></g><path fill="#ffffff" d="M 187.480469 301.792969 C 140.019531 301.792969 95.511719 296.09375 62.160156 285.746094 C 23.585938 273.777344 2.46875 256.28125 1.109375 235.144531 C 0.0273438 218.363281 1 191.039062 2.015625 171.070312 C 2.644531 158.488281 3.347656 148 3.695312 142.867188 C 3.953125 139.238281 4.164062 136.296875 4.335938 134.265625 C 4.414062 133.230469 4.488281 132.421875 4.542969 131.875 C 4.636719 130.902344 4.847656 128.613281 7.28125 128.152344 C 8.914062 127.835938 10.507812 128.785156 11.019531 130.355469 C 11.207031 130.925781 11.226562 131.515625 11.105469 132.0625 C 10.679688 135.980469 5.640625 203.519531 7.648438 234.71875 C 9.132812 257.703125 39.164062 271.746094 64.105469 279.488281 C 96.84375 289.648438 140.660156 295.238281 187.480469 295.238281 C 234.300781 295.238281 278.117188 289.648438 310.863281 279.488281 C 335.796875 271.746094 365.835938 257.707031 367.3125 234.71875 C 369.324219 203.519531 364.289062 135.980469 363.851562 132.0625 C 363.734375 131.515625 363.757812 130.925781 363.9375 130.355469 C 364.453125 128.78125 366.054688 127.835938 367.679688 128.152344 C 370.109375 128.613281 370.332031 130.902344 370.425781 131.875 C 370.476562 132.417969 370.546875 133.230469 370.632812 134.265625 C 370.792969 136.296875 371.015625 139.242188 371.261719 142.867188 C 371.621094 147.996094 372.3125 158.488281 372.953125 171.070312 C 373.960938 191.039062 374.941406 218.363281 373.859375 235.144531 C 372.492188 256.28125 351.382812 273.777344 312.800781 285.746094 C 279.449219 296.09375 234.949219 301.792969 187.480469 301.792969 Z M 187.480469 301.792969 " fill-opacity="1" fill-rule="evenodd"/><path fill="#000000" d="M 11.183594 131.367188 C 11.183594 156.300781 82.023438 182.996094 187.480469 182.996094 C 292.707031 182.996094 363.46875 156.421875 363.785156 131.535156 C 363.777344 131.429688 363.777344 131.320312 363.785156 131.210938 C 363.488281 106.324219 292.722656 79.742188 187.480469 79.742188 C 82.023438 79.742188 11.183594 106.433594 11.183594 131.367188 Z M 11.183594 131.367188 " fill-opacity="1" fill-rule="evenodd"/><path fill="#000000" d="M 187.480469 189.550781 C 139.199219 189.550781 93.761719 183.789062 59.539062 173.324219 C 35.03125 165.832031 18.144531 156.386719 10.066406 145.898438 C 8.5625 168.175781 6.15625 211.503906 7.648438 234.714844 C 9.132812 257.703125 39.164062 271.746094 64.105469 279.488281 C 96.84375 289.644531 140.660156 295.238281 187.480469 295.238281 C 234.300781 295.238281 278.117188 289.644531 310.863281 279.488281 C 335.796875 271.746094 365.835938 257.703125 367.3125 234.714844 C 368.808594 211.503906 366.40625 168.179688 364.898438 145.902344 C 356.820312 156.386719 339.929688 165.832031 315.417969 173.324219 C 281.199219 183.789062 235.769531 189.550781 187.480469 189.550781 Z M 187.480469 189.550781 " fill-opacity="1" fill-rule="evenodd"/><g transform="matrix(1, 0, 0, 1, 74, 196)"><g clip-path="url(#349a16df21)"><g fill="#ffffff" fill-opacity="1"><g transform="translate(3.087591, 43.545862)"><g><path d="M 32.25 -18.390625 L 17.5 -20.9375 L 16.359375 -14.296875 L 31.109375 -11.75 C 32.234375 -11.550781 33.035156 -11.566406 33.515625 -11.796875 C 33.992188 -12.023438 34.296875 -12.503906 34.421875 -13.234375 L 34.875 -15.875 C 35 -16.59375 34.875 -17.140625 34.5 -17.515625 C 34.125 -17.898438 33.375 -18.191406 32.25 -18.390625 Z M 30.3125 -7.171875 L 15.5625 -9.71875 L 14.34375 -2.65625 L 29.09375 -0.109375 C 30.320312 0.109375 31.179688 0.0703125 31.671875 -0.21875 C 32.171875 -0.507812 32.5 -1.125 32.65625 -2.0625 L 33.03125 -4.171875 C 33.1875 -5.085938 33.078125 -5.757812 32.703125 -6.1875 C 32.335938 -6.625 31.539062 -6.953125 30.3125 -7.171875 Z M 7.09375 1.234375 L 11.921875 -26.5625 L 35.75 -22.4375 C 37.945312 -22.050781 39.457031 -21.34375 40.28125 -20.3125 C 41.113281 -19.28125 41.367188 -17.832031 41.046875 -15.96875 L 40.453125 -12.5625 C 40.222656 -11.226562 39.628906 -10.234375 38.671875 -9.578125 C 37.710938 -8.929688 36.441406 -8.640625 34.859375 -8.703125 C 36.429688 -8.234375 37.566406 -7.457031 38.265625 -6.375 C 38.972656 -5.289062 39.195312 -4 38.9375 -2.5 L 38.328125 1.03125 C 38.003906 2.882812 37.085938 4.140625 35.578125 4.796875 C 34.078125 5.453125 31.945312 5.539062 29.1875 5.0625 Z M 7.09375 1.234375 "/></g></g></g><g fill="#ffffff" fill-opacity="1"><g transform="translate(46.928543, 51.168078)"><g><path d="M 16.109375 -26.96875 L 14.1875 -4.140625 L 32.828125 -2.5625 L 34.75 -25.390625 L 41.265625 -24.84375 L 39.453125 -3.359375 C 39.234375 -0.785156 38.601562 0.921875 37.5625 1.765625 C 36.53125 2.609375 34.648438 2.914062 31.921875 2.6875 L 14.15625 1.1875 C 11.445312 0.957031 9.644531 0.34375 8.75 -0.65625 C 7.851562 -1.664062 7.515625 -3.457031 7.734375 -6.03125 L 9.546875 -27.515625 Z M 16.109375 -26.96875 "/></g></g></g><g fill="#ffffff" fill-opacity="1"><g transform="translate(94.152618, 55.098443)"><g><path d="M 13.75 -5.40625 L 22.234375 -5.453125 C 26.753906 -5.484375 29.953125 -6.207031 31.828125 -7.625 C 33.703125 -9.039062 34.628906 -11.367188 34.609375 -14.609375 C 34.585938 -17.492188 33.785156 -19.671875 32.203125 -21.140625 C 30.628906 -22.617188 28.3125 -23.351562 25.25 -23.34375 L 13.625 -23.265625 Z M 7.203125 -0.046875 L 7.015625 -28.265625 L 25.171875 -28.390625 C 30.347656 -28.421875 34.335938 -27.234375 37.140625 -24.828125 C 39.941406 -22.421875 41.359375 -18.992188 41.390625 -14.546875 C 41.410156 -11.910156 40.882812 -9.535156 39.8125 -7.421875 C 38.738281 -5.304688 37.21875 -3.640625 35.25 -2.421875 C 34.03125 -1.648438 32.507812 -1.082031 30.6875 -0.71875 C 28.863281 -0.363281 26.523438 -0.175781 23.671875 -0.15625 Z M 7.203125 -0.046875 "/></g></g></g><g fill="#ffffff" fill-opacity="1"><g transform="translate(141.595189, 54.739677)"><g><path d="M 13.203125 -6.625 L 21.640625 -7.4375 C 26.140625 -7.875 29.257812 -8.882812 31 -10.46875 C 32.75 -12.050781 33.46875 -14.457031 33.15625 -17.6875 C 32.875 -20.550781 31.878906 -22.644531 30.171875 -23.96875 C 28.460938 -25.300781 26.082031 -25.820312 23.03125 -25.53125 L 11.46875 -24.40625 Z M 7.171875 -0.703125 L 4.4375 -28.78125 L 22.5 -30.53125 C 27.65625 -31.039062 31.734375 -30.222656 34.734375 -28.078125 C 37.742188 -25.941406 39.460938 -22.660156 39.890625 -18.234375 C 40.148438 -15.609375 39.84375 -13.191406 38.96875 -10.984375 C 38.09375 -8.785156 36.726562 -6.988281 34.875 -5.59375 C 33.738281 -4.71875 32.28125 -4.015625 30.5 -3.484375 C 28.71875 -2.960938 26.40625 -2.566406 23.5625 -2.296875 Z M 7.171875 -0.703125 "/></g></g></g><g fill="#ffffff" fill-opacity="1"><g transform="translate(188.659813, 49.918946)"><g><path d="M 14.84375 -2.671875 L 12.609375 -15.09375 L -4.578125 -27.84375 L 4.046875 -29.390625 L 15.5 -20.4375 L 23.140625 -32.84375 L 30.734375 -34.203125 L 19.09375 -16.421875 L 21.359375 -3.84375 Z M 14.84375 -2.671875 "/></g></g></g></g></g></g></g></svg>